<svg width="50" height="50" viewBox="0 0 50 50" fill="none" xmlns="http://www.w3.org/2000/svg">
<rect width="50" height="50" rx="25" fill="#C9C9C9"/>
<path d="M9.05682 29.5V20.7727H10.1136V28.5625H14.1705V29.5H9.05682ZM22.8306 25.1364C22.8306 26.0568 22.6644 26.8523 22.332 27.5227C21.9996 28.1932 21.5437 28.7102 20.9641 29.0739C20.3846 29.4375 19.7227 29.6193 18.9783 29.6193C18.234 29.6193 17.5721 29.4375 16.9925 29.0739C16.413 28.7102 15.957 28.1932 15.6246 27.5227C15.2923 26.8523 15.1261 26.0568 15.1261 25.1364C15.1261 24.2159 15.2923 23.4205 15.6246 22.75C15.957 22.0795 16.413 21.5625 16.9925 21.1989C17.5721 20.8352 18.234 20.6534 18.9783 20.6534C19.7227 20.6534 20.3846 20.8352 20.9641 21.1989C21.5437 21.5625 21.9996 22.0795 22.332 22.75C22.6644 23.4205 22.8306 24.2159 22.8306 25.1364ZM21.8079 25.1364C21.8079 24.3807 21.6815 23.7429 21.4286 23.223C21.1786 22.7031 20.8391 22.3097 20.4102 22.0426C19.984 21.7756 19.5067 21.642 18.9783 21.642C18.4499 21.642 17.9712 21.7756 17.5423 22.0426C17.1161 22.3097 16.7766 22.7031 16.5238 23.223C16.2738 23.7429 16.1488 24.3807 16.1488 25.1364C16.1488 25.892 16.2738 26.5298 16.5238 27.0497C16.7766 27.5696 17.1161 27.9631 17.5423 28.2301C17.9712 28.4972 18.4499 28.6307 18.9783 28.6307C19.5067 28.6307 19.984 28.4972 20.4102 28.2301C20.8391 27.9631 21.1786 27.5696 21.4286 27.0497C21.6815 26.5298 21.8079 25.892 21.8079 25.1364ZM30.5735 23.5C30.4798 23.2131 30.3562 22.956 30.2028 22.7287C30.0522 22.4986 29.8718 22.3026 29.6616 22.1406C29.4542 21.9787 29.2184 21.8551 28.9542 21.7699C28.69 21.6847 28.4002 21.642 28.0849 21.642C27.5678 21.642 27.0977 21.7756 26.6744 22.0426C26.2511 22.3097 25.9144 22.7031 25.6644 23.223C25.4144 23.7429 25.2894 24.3807 25.2894 25.1364C25.2894 25.892 25.4158 26.5298 25.6687 27.0497C25.9215 27.5696 26.2638 27.9631 26.6957 28.2301C27.1275 28.4972 27.6133 28.6307 28.1531 28.6307C28.6531 28.6307 29.0934 28.5241 29.4741 28.3111C29.8576 28.0952 30.1559 27.7912 30.369 27.3991C30.5849 27.0043 30.6928 26.5398 30.6928 26.0057L31.0167 26.0739H28.3917V25.1364H31.7156V26.0739C31.7156 26.7926 31.5621 27.4176 31.2553 27.9489C30.9513 28.4801 30.5309 28.892 29.994 29.1847C29.4599 29.4744 28.8462 29.6193 28.1531 29.6193C27.3803 29.6193 26.7013 29.4375 26.1161 29.0739C25.5337 28.7102 25.0792 28.1932 24.7525 27.5227C24.4286 26.8523 24.2667 26.0568 24.2667 25.1364C24.2667 24.446 24.359 23.8253 24.5437 23.2741C24.7312 22.7202 24.9954 22.2486 25.3363 21.8594C25.6772 21.4702 26.0806 21.1719 26.5465 20.9645C27.0124 20.7571 27.5252 20.6534 28.0849 20.6534C28.5451 20.6534 28.9741 20.723 29.3718 20.8622C29.7724 20.9986 30.1289 21.1932 30.4414 21.446C30.7567 21.696 31.0195 21.9957 31.2298 22.3452C31.44 22.6918 31.5849 23.0767 31.6644 23.5H30.5735ZM40.8892 25.1364C40.8892 26.0568 40.723 26.8523 40.3906 27.5227C40.0582 28.1932 39.6023 28.7102 39.0227 29.0739C38.4432 29.4375 37.7813 29.6193 37.0369 29.6193C36.2926 29.6193 35.6307 29.4375 35.0511 29.0739C34.4716 28.7102 34.0156 28.1932 33.6832 27.5227C33.3509 26.8523 33.1847 26.0568 33.1847 25.1364C33.1847 24.2159 33.3509 23.4205 33.6832 22.75C34.0156 22.0795 34.4716 21.5625 35.0511 21.1989C35.6307 20.8352 36.2926 20.6534 37.0369 20.6534C37.7813 20.6534 38.4432 20.8352 39.0227 21.1989C39.6023 21.5625 40.0582 22.0795 40.3906 22.75C40.723 23.4205 40.8892 24.2159 40.8892 25.1364ZM39.8665 25.1364C39.8665 24.3807 39.7401 23.7429 39.4872 23.223C39.2372 22.7031 38.8977 22.3097 38.4688 22.0426C38.0426 21.7756 37.5653 21.642 37.0369 21.642C36.5085 21.642 36.0298 21.7756 35.6009 22.0426C35.1747 22.3097 34.8352 22.7031 34.5824 23.223C34.3324 23.7429 34.2074 24.3807 34.2074 25.1364C34.2074 25.892 34.3324 26.5298 34.5824 27.0497C34.8352 27.5696 35.1747 27.9631 35.6009 28.2301C36.0298 28.4972 36.5085 28.6307 37.0369 28.6307C37.5653 28.6307 38.0426 28.4972 38.4688 28.2301C38.8977 27.9631 39.2372 27.5696 39.4872 27.0497C39.7401 26.5298 39.8665 25.892 39.8665 25.1364Z" fill="black"/>
</svg>
